<svg width="24" height="24" viewBox="0 0 24 24" fill="none" xmlns="http://www.w3.org/2000/svg">
<g clip-path="url(#clip0_2825_4708)">
<g clip-path="url(#clip1_2825_4708)">
<path d="M12.2426 1.08417C13.8592 2.309 17.8581 6.10836 16.9254 13.1917C16.9254 13.1917 17.9673 12.5973 18.8937 11.4973C19.1076 11.2435 19.5371 11.341 19.6096 11.6595C19.7706 12.3678 19.9658 13.5021 19.9981 14.9369C20.0958 19.2719 16.5211 22.9924 11.9863 23C7.58904 23.0074 4 19.57 4 15.3494C4 11.6922 5.85156 9.78326 6.56454 6.63716C6.62323 6.37796 6.93454 6.25385 7.17298 6.38949C7.71399 6.69699 8.56942 7.27299 9.12909 8.09147C9.12909 8.09147 11.4049 5.33504 11.5831 1.38034C11.5974 1.06075 11.9805 0.885353 12.2426 1.08417Z" fill="#FFAA5F"/>
<path d="M16.3216 15.3123C15.683 16.2288 14.8736 16.4371 14.8736 16.4371C15.2012 12.6774 13.6973 9.91856 13.078 8.95968C12.9904 8.82383 12.7728 8.85966 12.7374 9.01578C12.1711 11.5275 10.6507 12.9223 10.6507 12.9223C10.1559 12.3707 9.68564 12.1447 9.44099 12.0574C9.3448 12.0233 9.242 12.0738 9.20624 12.1657C8.58167 13.7672 7.40132 15.0035 7.13276 16.8446C6.7375 19.5534 8.79601 22.1209 11.6497 22.3104C14.5281 22.5015 16.9252 20.3254 16.9252 17.6142C16.9252 16.5234 16.7736 15.7743 16.6576 15.361C16.6158 15.2118 16.4109 15.1839 16.3216 15.3123Z" fill="#FFE17D"/>
<path d="M12.1198 14.8954C12.0605 14.7529 11.8711 14.7137 11.763 14.8271C11.1177 15.5047 9.3833 17.488 9.3833 19.2344C9.3833 20.6168 10.5555 21.7376 12.0015 21.7376C13.4473 21.7376 14.6195 20.6168 14.6195 19.2344C14.6195 17.92 12.9292 16.8424 12.1198 14.8954Z" fill="#FFF5D6"/>
<path d="M11.9181 22.9964C11.0648 22.9353 3.72639 21.6269 6.25673 12.7992C7.20097 9.50542 7.36634 6.50353 7.36634 6.50353C7.29891 6.46264 7.23342 6.42382 7.17298 6.38944C6.93454 6.2538 6.62323 6.37792 6.56454 6.63712C5.85156 9.78301 4 11.6921 4 15.3494C4 19.5479 7.53774 22.9535 11.9181 22.9964Z" fill="#FF8C5A"/>
</g>
</g>
<defs>
<clipPath id="clip0_2825_4708">
<rect width="16" height="22" fill="white" transform="translate(4 1)"/>
</clipPath>
<clipPath id="clip1_2825_4708">
<rect width="16" height="22" fill="white" transform="translate(4 1)"/>
</clipPath>
</defs>
</svg>
