<svg width="40" height="40" viewBox="0 0 40 40" fill="none" xmlns="http://www.w3.org/2000/svg">
<path d="M32.8441 13.8672C33.1409 13.1797 33.0003 12.3828 32.4847 11.8359L21.8597 0.585938C21.5081 0.210937 21.0159 0 20.5003 0C19.9847 0 19.4925 0.210937 19.1409 0.585938L8.51593 11.8359C8.0003 12.3828 7.85968 13.1797 8.15655 13.8672C8.45343 14.5547 9.1253 15 9.8753 15H15.5003V37.5C15.5003 38.8828 16.6175 40 18.0003 40H23.0003C24.3831 40 25.5003 38.8828 25.5003 37.5V15H31.1253C31.8753 15 32.5472 14.5547 32.8441 13.8672Z" fill="#E93E3A"/>
</svg>
